# xmcd CD database file
#
# Track frame offsets:
#	150
#	19883
#	40815
#	62258
#	79221
#	100070
#	118225
#	137662
#	160055
#	180602
#	196907
#	214923
#	232551
#	248384
#
# Disc length: 3582 seconds
#
# Revision: 0
# Processed by: cddbd v1.5.1PL2 Copyright (c) Steve Scherf et al.
# Submitted via: CDex 1.51
#
DISCID=aa0dfc0e
DTITLE=Various Artist - Mega Merengazo 2006
DYEAR=2006
DGENRE=Merengue
TTITLE0=Traigo fuego
TTITLE1=Mal acustombrado
TTITLE2=A esa
TTITLE3=La querida
TTITLE4=Ella ta' ahi
TTITLE5=Mi tierra
TTITLE6=Tililin
TTITLE7=La langosta
TTITLE8=Amor de lejos
TTITLE9=Pajaro malo
TTITLE10=Como pude enamorarme de ti
TTITLE11=Mentirosa
TTITLE12=Queriendote y adorandote
TTITLE13=Mi linda paloma
EXTD=YEAR: 2006
EXTT0=
EXTT1=
EXTT2=
EXTT3=
EXTT4=
EXTT5=
EXTT6=
EXTT7=
EXTT8=
EXTT9=
EXTT10=
EXTT11=
EXTT12=
EXTT13=
PLAYORDER=
